<?xml version="1.0" encoding="utf-8"?>
<!-- Generator: Adobe Illustrator 22.1.0, SVG Export Plug-In . SVG Version: 6.00 Build 0)  -->
<svg version="1.1" id="Layer_1" xmlns="http://www.w3.org/2000/svg" xmlns:xlink="http://www.w3.org/1999/xlink" x="0px" y="0px"
	 viewBox="0 0 20 20" style="enable-background:new 0 0 20 20;" xml:space="preserve">
<style type="text/css">
	.st0{fill-rule:evenodd;clip-rule:evenodd;fill:none;}
	.st1{fill-rule:evenodd;clip-rule:evenodd;fill:#606060;}
	.st2{fill:none;stroke:#606060;stroke-width:2.5;stroke-miterlimit:10;}
	.st3{fill:#606060;}
	.st4{fill:#606060;stroke:#606060;stroke-width:1.5;stroke-miterlimit:10;}
</style>
<path class="st3" d="M13.8,12.3H13L12.7,12c1-1.1,1.6-2.6,1.6-4.2c0-3.6-2.9-6.5-6.5-6.5S1.3,4.2,1.3,7.8s2.9,6.5,6.5,6.5
	c1.6,0,3.1-0.6,4.2-1.6l0.3,0.3v0.8l5,5l1.5-1.5L13.8,12.3z M7.8,12.3c-2.5,0-4.5-2-4.5-4.5s2-4.5,4.5-4.5s4.5,2,4.5,4.5
	S10.2,12.3,7.8,12.3z"/>
</svg>
