<?xml version="1.0" encoding="utf-8"?>
<!-- Generator: Adobe Illustrator 22.1.0, SVG Export Plug-In . SVG Version: 6.00 Build 0)  -->
<svg version="1.1" id="Layer_1" xmlns="http://www.w3.org/2000/svg" xmlns:xlink="http://www.w3.org/1999/xlink" x="0px" y="0px"
	 viewBox="0 0 8 5" style="enable-background:new 0 0 8 5;" xml:space="preserve">
<style type="text/css">
	.st0{fill-rule:evenodd;clip-rule:evenodd;fill:none;}
	.st1{fill-rule:evenodd;clip-rule:evenodd;fill:#606060;}
</style>
<path class="st0" d="M-999.1,52.7c-10.1,0-18.3-8.2-18.3-18.3c0-10.1,8.2-18.3,18.3-18.3c10.1,0,18.3,8.2,18.3,18.3
	C-980.8,44.5-989,52.7-999.1,52.7z M-974.8,52.7h-3.2l-1.1-1.1c4-4.6,6.4-10.6,6.4-17.2c0-14.6-11.8-26.4-26.4-26.4
	c-14.6,0-26.4,11.8-26.4,26.4c0,14.6,11.8,26.4,26.4,26.4c6.5,0,12.5-2.4,17.2-6.4l1.1,1.1v3.2l20.3,20.3l6-6L-974.8,52.7z"/>
<polygon class="st1" points="0,0 4,5 8,0 "/>
</svg>
